HIERARCHY
ROOT Hips
{
  OFFSET 0 89.5177 0.535
  CHANNELS 6 Xposition Yposition Zposition Zrotation Xrotation Yrotation
  JOINT Spine
  {
    OFFSET 12.0259 -0.162855 1.69034e-005
    CHANNELS 3 Zrotation Xrotation Yrotation
    JOINT Spine1
    {
      OFFSET 15.3169 -0.0121922 0
      CHANNELS 3 Zrotation Xrotation Yrotation
      JOINT Spine2
      {
        OFFSET 15.3176 -0.0121908 0
        CHANNELS 3 Zrotation Xrotation Yrotation
        JOINT Neck
        {
          OFFSET 19.9142 1.56338 0
          CHANNELS 3 Zrotation Xrotation Yrotation
          JOINT Head
          {
            OFFSET 6.92651 0 0
            CHANNELS 3 Zrotation Xrotation Yrotation
            End Site
            {
              OFFSET 20.7666 0 0
            }
          }
          JOINT LeftShoulder
          {
            OFFSET -6.20654 0.708824 7.28219
            CHANNELS 3 Zrotation Xrotation Yrotation
            JOINT LeftArm
            {
              OFFSET 14.108 0 -1.52588e-005
              CHANNELS 3 Zrotation Xrotation Yrotation
              JOINT LeftForeArm
              {
                OFFSET 28.5802 0 0
                CHANNELS 3 Zrotation Xrotation Yrotation
                JOINT LeftHand
                {
                  OFFSET 27.092 0 0
                  CHANNELS 3 Zrotation Xrotation Yrotation
                  End Site
                  {
                    OFFSET 9.55928 -0.186424 0.145352
                  }
                }
              }
            }
          }
          JOINT RightShoulder
          {
            OFFSET -6.20654 0.708866 -7.28218
            CHANNELS 3 Zrotation Xrotation Yrotation
            JOINT RightArm
            {
              OFFSET 14.108 0 1.52588e-005
              CHANNELS 3 Zrotation Xrotation Yrotation
              JOINT RightForeArm
              {
                OFFSET 28.5802 0 0
                CHANNELS 3 Zrotation Xrotation Yrotation
                JOINT RightHand
                {
                  OFFSET 27.092 0 0
                  CHANNELS 3 Zrotation Xrotation Yrotation
                  End Site
                  {
                    OFFSET 9.55929 -0.186417 -0.145354
                  }
                }
              }
            }
          }
        }
      }
    }
  }
  JOINT LeftUpLeg
  {
    OFFSET 0.005 -0.535 8.837
    CHANNELS 3 Zrotation Xrotation Yrotation
    JOINT LeftLeg
    {
      OFFSET 39.9035 0 0
      CHANNELS 3 Zrotation Xrotation Yrotation
      JOINT LeftFoot
      {
        OFFSET 39.6689 0 0
        CHANNELS 3 Zrotation Xrotation Yrotation
        JOINT LeftToe
        {
          OFFSET 10.1624 13.6296 0
          CHANNELS 3 Zrotation Xrotation Yrotation
          End Site
          {
            OFFSET 8.38147 0 0
          }
        }
      }
    }
  }
  JOINT RightUpLeg
  {
    OFFSET 0.005 -0.535 -8.837
    CHANNELS 3 Zrotation Xrotation Yrotation
    JOINT RightLeg
    {
      OFFSET 39.9035 0 0
      CHANNELS 3 Zrotation Xrotation Yrotation
      JOINT RightFoot
      {
        OFFSET 39.6689 0 0
        CHANNELS 3 Zrotation Xrotation Yrotation
        JOINT RightToe
        {
          OFFSET 10.1624 13.6296 0
          CHANNELS 3 Zrotation Xrotation Yrotation
          End Site
          {
            OFFSET 8.38147 0 0
          }
        }
      }
    }
  }
}
MOTION
Frames:	17
Frame Time:	0.0333333
430.983 88.1729 260.887 68.6304 -67.8979 -12.4626 7.87772 -1.48581 -0.994964 15.7371 -3.09334 -1.77763 15.7371 -3.09334 -1.77764 -8.30112e-012 -9.0191e-006 -5.27751e-005 -16.8116 -11.1113 6.85202 178.258 5.21244 -71.4944 -11.7321 9.94157 55.339 -87.4154 -7.95139e-016 -1.59028e-015 -84.9584 -56.0961 -89.9636 -179.414 2.9285 78.687 -25.6659 0.954206 -62.8611 -77.1594 -3.18055e-015 -3.18055e-015 -63.3684 57.7849 71.259 -2.39482 8.31802 -175.494 -16.0061 3.18055e-015 -1.59028e-015 4.80478 10.4759 -23.4967 90 -2.5842e-015 3.18055e-015 -14.8199 -20.8786 167.495 -31.0718 7.95139e-016 3.97569e-016 13.9618 -3.17417 0.656937 90 -2.70223e-016 -0 
431.096 88.2559 261.459 69.0787 -69.2548 -12.2993 7.83696 -1.54717 -0.847494 15.6593 -3.19486 -1.47672 15.6593 -3.19486 -1.47673 -8.30112e-012 -9.0191e-006 -5.27751e-005 -17.1068 -10.7141 6.85541 178.392 4.81951 -71.5203 -12.9946 9.43145 54.6673 -86.7685 1.59028e-015 3.18055e-015 -83.1385 -57.7056 -87.935 -179.33 3.26006 78.3781 -25.4491 0.180692 -61.8013 -78.002 0 6.36111e-015 -64.1493 57.7871 72.3565 -2.62236 7.83315 -174.931 -16.3096 3.18055e-015 -1.59028e-015 5.51678 11.0353 -24.8702 90 4.96962e-016 -0 -15.6556 -20.4311 167.88 -30.7436 -3.97569e-016 -9.93923e-016 13.7463 -3.71131 0.827772 90 -3.16813e-016 -1.98785e-016 
431.141 88.2638 262.113 68.2479 -70.848 -13.4733 7.86466 -1.52393 -0.714328 15.7185 -3.13072 -1.21385 15.7185 -3.13072 -1.21386 -8.30748e-012 -9.0191e-006 -5.27751e-005 -16.9158 -10.2211 7.12105 178.432 4.71554 -71.5864 -13.6802 8.96501 54.0958 -86.6498 3.18055e-015 3.18055e-015 -80.5032 -58.422 -84.8891 -179.382 3.01629 78.4111 -24.6789 -0.641957 -61.1215 -78.6439 3.18055e-015 -0 -64.516 57.7156 72.7996 -3.23424 8.23705 -174.119 -19.0719 9.54166e-015 7.95139e-016 6.22771 10.5353 -23.6386 90 1.61513e-015 -0 -16.1286 -19.5107 168.5 -30.4739 -3.97569e-016 1.98785e-016 13.2716 -4.07913 0.886158 90 -1.22687e-015 -2.98177e-016 
431.052 88.2461 262.828 66.6848 -72.4462 -15.5197 7.92399 -1.43378 -0.593424 15.8405 -2.93514 -0.983794 15.8405 -2.93514 -0.983804 -8.31066e-012 -9.0191e-006 -5.27751e-005 -16.5547 -9.86429 7.53972 178.341 5.06419 -71.8379 -13.961 8.55536 53.8007 -86.9137 0 1.59028e-015 -79.2282 -59.0017 -83.5302 -179.479 2.53219 78.3608 -23.5799 -1.28323 -60.5952 -79.1009 0 -0 -65.9061 57.3737 74.565 -4.03065 9.20214 -173.192 -23.3904 0 -3.97569e-015 6.9447 8.80326 -19.4947 90 5.96354e-016 -6.36111e-015 -16.4188 -18.5577 169.239 -30.1851 -1.59028e-015 4.96962e-016 12.7829 -4.50418 1.03414 90 -1.50642e-015 -4.96962e-017 
430.892 88.2365 263.611 64.4033 -74.0204 -18.3416 7.9763 -1.3588 -0.489642 15.9477 -2.77189 -0.786148 15.9477 -2.7719 -0.786157 -8.3043e-012 -9.0191e-006 -5.27751e-005 -16.1712 -9.29094 7.83124 178.311 5.23414 -72.0875 -14.6269 8.34325 53.6924 -87.0428 -1.59028e-015 -3.18055e-015 -76.9283 -58.8489 -80.8795 -179.496 2.42683 78.2698 -23.2967 -1.25013 -60.1165 -78.6211 0 -3.18055e-015 -65.3856 57.8433 74.2388 -4.67733 10.7727 -172.06 -27.8951 3.18055e-015 -1.59028e-015 7.44179 7.2133 -15.8168 90 -2.38542e-015 3.18055e-015 -16.3815 -17.2668 170.186 -29.5184 7.95139e-016 1.98785e-016 11.9046 -4.69845 1.0617 90 -2.26739e-016 4.96962e-017 
430.516 88.242 264.53 62.7008 -75.0369 -20.2958 7.95909 -1.41618 -0.430435 15.9149 -2.87781 -0.660739 15.9149 -2.87781 -0.660748 -8.29794e-012 -9.0191e-006 -5.27751e-005 -15.6261 -8.71009 7.8074 178.331 5.25365 -72.3458 -15.3994 8.18288 53.9941 -86.928 0 -3.18055e-015 -75.8717 -58.2435 -79.6798 -179.444 2.62929 78.0661 -23.5787 -0.983703 -59.7507 -77.7666 0 -6.36111e-015 -64.0909 58.5898 73.1376 -5.00003 11.2622 -171.537 -31.8658 3.18055e-015 -0 7.80131 6.93864 -15.1883 90 0 3.18055e-015 -16.5945 -16.3169 170.477 -28.7895 1.59028e-015 2.98177e-016 10.7873 -4.8056 1.19727 90 1.30918e-015 -9.93923e-017 
430.031 88.2287 265.566 61.2153 -75.7324 -21.9229 7.90761 -1.49681 -0.37294 15.8136 -3.03019 -0.536462 15.8136 -3.03019 -0.536471 -8.3043e-012 -9.0191e-006 -5.27751e-005 -14.9756 -8.22692 7.5051 178.296 5.39075 -72.4304 -16.1263 8.28466 54.4123 -86.0663 -3.18055e-015 -3.18055e-015 -75.3322 -57.7763 -79.1011 -179.397 2.84008 78.0049 -23.7618 -0.966493 -59.8549 -77.5473 3.18055e-015 -0 -63.8353 58.6302 73.2335 -4.77738 10.6184 -171.775 -35.1263 0 3.18055e-015 8.72098 7.08306 -14.5714 90 7.95139e-016 6.36111e-015 -16.6744 -15.2111 170.657 -27.7473 0 -2.98177e-016 9.30988 -4.58316 0.985536 90 -9.34909e-016 -4.96962e-017 
429.407 88.1927 266.703 59.8785 -76.1522 -23.3765 7.86692 -1.57819 -0.323358 15.734 -3.18529 -0.427657 15.734 -3.18529 -0.427666 -8.3043e-012 -9.0191e-006 -5.27751e-005 -14.6609 -7.9458 7.1629 178.217 5.61975 -72.3635 -16.2821 8.34649 54.7941 -84.9389 0 -6.36111e-015 -77.7341 -57.638 -81.9278 -179.388 2.89224 78.0479 -23.2344 -0.932457 -60.4002 -77.6608 6.36111e-015 6.36111e-015 -63.6899 58.5113 73.3172 -3.94553 9.19401 -172.74 -37.2249 -3.18055e-015 -0 9.76563 7.29589 -13.1839 90 -2.38542e-015 -0 -16.6183 -14.0857 170.71 -26.477 0 -4.96962e-017 7.61262 -4.20241 0.671571 90 3.91357e-016 9.93923e-017 
428.685 88.1447 267.967 58.7107 -76.6113 -24.8022 7.8157 -1.624 -0.285942 15.6328 -3.27129 -0.348331 15.6328 -3.27129 -0.34834 -8.30748e-012 -9.0191e-006 -5.27751e-005 -14.5982 -7.67328 7.1443 178.161 5.74399 -72.2131 -15.9442 8.32615 55.1716 -84.6044 -1.59028e-015 -6.36111e-015 -77.928 -57.8665 -82.2066 -179.364 2.97111 77.91 -22.6596 -0.954942 -60.7273 -77.9573 3.18055e-015 -0 -63.5251 58.8027 73.4296 -2.53146 7.33897 -174.255 -37.7336 3.18055e-015 -0 11.1194 7.58274 -10.6384 90 7.95139e-016 -0 -16.5249 -13.0242 170.823 -24.8776 -1.19271e-015 4.96962e-016 5.73875 -3.95102 0.445662 90 -8.13775e-016 -9.93923e-017 
427.91 88.0967 269.339 56.5461 -77.379 -27.4529 7.77335 -1.59085 -0.245969 15.5489 -3.19985 -0.274413 15.5489 -3.19985 -0.274422 -8.3043e-012 -9.0191e-006 -5.27751e-005 -14.6394 -7.34046 7.28489 178.205 5.56304 -72.0897 -15.613 8.24698 55.602 -84.5661 1.59028e-015 3.18055e-015 -77.3396 -58.3308 -81.612 -179.332 3.05557 77.6641 -22.4298 -1.09636 -60.5527 -78.2162 -1.59028e-015 -3.18055e-015 -63.0343 59.3152 73.1022 -0.76643 6.41137 -175.236 -35.4146 3.18055e-015 -1.59028e-015 12.5853 6.92009 -8.97089 90 -1.19271e-015 -3.18055e-015 -16.675 -12.5118 170.985 -23.3723 0 3.72721e-016 4.11133 -4.28599 0.957047 90 -6.80216e-016 1.98785e-016 
427.234 88.0106 270.838 53.8529 -78.9786 -30.7998 7.63992 -1.42761 -0.258198 15.2806 -2.87638 -0.324256 15.2806 -2.87638 -0.324265 -8.31384e-012 -9.0191e-006 -5.27751e-005 -14.606 -6.82256 7.61702 178.333 5.18831 -72.1558 -15.4063 8.30377 56.0315 -84.5579 1.59028e-015 -0 -77.3655 -58.5317 -81.6798 -179.323 3.00896 77.3206 -22.3021 -1.3256 -60.1764 -78.5008 4.77083e-015 6.36111e-015 -62.0085 59.9873 72.0176 0.180398 8.02033 -175.594 -32.3664 0 -1.59028e-015 13.9482 6.43781 -8.03925 90 -3.97569e-016 -0 -16.9707 -11.1835 171.7 -21.2448 0 -1.80149e-016 1.83459 -4.45591 1.51241 90 3.19919e-016 -0 
426.534 87.9787 272.531 51.7237 -80.392 -33.0126 7.50795 -1.3824 -0.387125 15.0131 -2.80303 -0.590373 15.0131 -2.80303 -0.590382 -8.3043e-012 -9.0191e-006 -5.27751e-005 -14.8862 -6.18918 8.00642 178.474 4.78876 -72.2979 -15.1188 8.55368 56.0732 -84.8297 0 -6.36111e-015 -77.6381 -58.5047 -81.9933 -179.305 2.98093 76.8615 -22.3825 -1.40601 -59.7691 -78.8573 0 -3.18055e-015 -59.9627 60.7391 69.644 0.182236 10.0897 -176.482 -30.2741 0 -0 14.2893 5.61838 -6.94189 90 0 -1.59028e-015 -17.5418 -10.1143 171.681 -18.9634 -7.95139e-016 -0 -0.299366 -4.63962 2.21119 90 9.90817e-016 -9.93923e-017 
425.917 88.051 274.264 51.9145 -81.1009 -32.4766 7.42954 -1.4515 -0.587567 14.8513 -2.96626 -0.982793 14.8513 -2.96626 -0.982802 -8.30748e-012 -9.0191e-006 -5.27751e-005 -15.5951 -6.04162 8.47234 178.483 4.8213 -72.5164 -14.5467 8.8817 55.5801 -85.34 6.36111e-015 9.54166e-015 -78.9359 -58.3924 -83.4699 -179.252 3.05052 76.2151 -22.1463 -1.25233 -59.5814 -79.3272 1.59028e-015 6.36111e-015 -58.0538 61.7007 67.3264 -0.244976 11.0332 -177.817 -28.7358 0 7.95139e-016 13.7631 4.73343 -5.63913 90 -7.95139e-016 4.77083e-015 -18.8061 -11.0513 170.688 -18.1384 3.18056e-015 3.97569e-016 0.95883 -4.79516 1.95525 90 3.47873e-016 -3.97569e-016 
425.491 88.2322 275.932 53.318 -80.9906 -31.2631 7.4488 -1.52219 -0.639457 14.8884 -3.1139 -1.07654 14.8884 -3.1139 -1.07655 -8.31066e-012 -9.0191e-006 -5.27751e-005 -16.309 -6.25463 8.80862 178.485 4.87231 -72.6971 -14.3503 9.01726 54.7148 -85.5441 4.77083e-015 -0 -80.8911 -58.5913 -85.7929 -179.18 3.20258 75.6365 -21.5308 -1.01016 -59.8765 -80.047 -3.18055e-015 3.18055e-015 -56.82 62.8581 65.9377 -0.891978 11.4255 -178.25 -27.6582 0 -0 13.0885 4.40534 -5.03957 90 -3.97569e-016 -0 -20.0819 -15.6328 169.435 -17.8375 1.59028e-015 1.98785e-016 5.78121 -4.31786 0.243011 90 1.98785e-016 -7.95139e-016 
425.268 88.4257 277.423 53.4735 -80.701 -31.3621 7.48706 -1.5286 -0.67404 14.964 -3.13144 -1.14356 14.964 -3.13144 -1.14357 -8.30112e-012 -9.0191e-006 -5.27751e-005 -16.5742 -6.62347 8.95213 178.51 4.86749 -72.9558 -14.1742 9.1467 54.1431 -85.5457 3.18055e-015 3.18055e-015 -81.492 -58.697 -86.4884 -179.194 3.10365 75.4345 -20.3951 -0.836163 -60.8933 -80.8452 6.36111e-015 6.36111e-015 -55.7652 63.8306 64.7139 -1.41881 12.0818 -178.123 -26.9011 -3.18055e-015 2.38542e-015 12.7006 4.78486 -6.10024 90 -3.97569e-016 -0 -21.6541 -23.4624 167.277 -17.1902 -9.54167e-015 -3.57812e-015 9.2974 -3.58579 -1.22702 90 -3.18055e-015 -4.77083e-015 
425.119 88.5299 278.783 52.01 -80.2247 -32.6744 7.53502 -1.52824 -0.785304 15.0569 -3.14569 -1.36396 15.0569 -3.14569 -1.36396 -8.30112e-012 -9.0191e-006 -5.27751e-005 -16.3601 -6.88933 8.77703 178.552 4.82648 -73.2776 -13.6521 9.60548 54.0362 -85.9483 6.36111e-015 -0 -81.4933 -58.8239 -86.4951 -179.227 2.99025 75.5058 -19.8293 -1.05136 -62.1777 -81.8507 9.54166e-015 3.18055e-015 -55.3566 63.5645 64.0499 -1.43021 12.2669 -178.409 -26.1002 -3.18055e-015 7.95139e-016 12.2468 4.98622 -6.96239 90 -1.98785e-016 -0 -23.672 -32.3481 163.728 -16.5809 6.36111e-015 2.78299e-015 9.31191 -2.46874 -2.9079 90 1.59028e-015 -3.18055e-015 
425.079 88.5651 280.079 49.8913 -79.9829 -34.5596 7.54951 -1.44226 -0.921726 15.0826 -2.9925 -1.6466 15.0826 -2.99251 -1.64661 -8.30748e-012 -9.0191e-006 -5.27751e-005 -16.0311 -6.82335 8.20609 178.573 4.81428 -73.4637 -12.7686 10.2489 54.093 -86.5175 0 -3.18055e-015 -81.8112 -58.5565 -86.7728 -179.197 3.12861 75.5942 -20.3072 -1.45502 -63.2554 -82.8249 1.59028e-015 -3.18055e-015 -56.7584 61.9838 65.2009 -0.940048 12.4657 -178.867 -24.5326 0 7.95139e-016 11.8204 5.08158 -7.65843 90 1.98785e-015 -9.54166e-015 -24.3258 -36.2103 160.978 -17.0486 9.54167e-015 -3.97569e-016 7.95103 -0.818342 -3.94121 90 7.95139e-016 6.36111e-015 
